<svg width="16" height="16" viewBox="0 0 16 16" fill="none" xmlns="http://www.w3.org/2000/svg">
<g clip-path="url(#clip0_20_1057)">
<path fill-rule="evenodd" clip-rule="evenodd" d="M8.00008 2.00001C4.68637 2.00001 2.00008 4.6863 2.00008 8C2.00008 11.3137 4.68637 14 8.00008 14C11.3138 14 14.0001 11.3137 14.0001 8C14.0001 4.6863 11.3138 2.00001 8.00008 2.00001ZM0.666748 8C0.666748 3.94992 3.94999 0.666672 8.00008 0.666672C12.0502 0.666672 15.3334 3.94992 15.3334 8C15.3334 12.0501 12.0502 15.3333 8.00008 15.3333C3.94999 15.3333 0.666748 12.0501 0.666748 8Z" fill="#D9D9D9"/>
<path fill-rule="evenodd" clip-rule="evenodd" d="M8.00008 3.33334C8.36827 3.33334 8.66675 3.63182 8.66675 4V7.58798L10.9649 8.73705C11.2942 8.90171 11.4277 9.30216 11.263 9.63148C11.0984 9.9608 10.6979 10.0943 10.3686 9.92962L7.70194 8.59629C7.47608 8.48336 7.33341 8.25252 7.33341 8V4C7.33341 3.63182 7.63189 3.33334 8.00008 3.33334Z" fill="#D9D9D9"/>
</g>
<defs>
<clipPath id="clip0_20_1057">
<rect width="16" height="16" fill="white"/>
</clipPath>
</defs>
</svg>
