<svg width="95" height="40" viewBox="0 0 95 40" fill="none" xmlns="http://www.w3.org/2000/svg">
<path d="M0.66 17V0.199999H6.924C9.548 0.199999 11.692 0.999999 13.356 2.6C15.02 4.184 15.852 6.184 15.852 8.6C15.852 11 15.012 13 13.332 14.6C11.668 16.2 9.532 17 6.924 17H0.66ZM3.612 14.312H6.924C8.668 14.312 10.076 13.784 11.148 12.728C12.22 11.656 12.756 10.28 12.756 8.6C12.756 6.936 12.22 5.568 11.148 4.496C10.076 3.424 8.668 2.888 6.924 2.888H3.612V14.312ZM19.4334 17V0.199999H22.5774L27.6894 8.144L32.8014 0.199999H35.9454V17H32.9934V4.952L27.6894 12.872H27.5934L22.3374 5V17H19.4334ZM40.4374 17V0.199999H43.3894V17H40.4374ZM52.0146 17V2.936H46.6866V0.199999H60.3186V2.936H54.9906V17H52.0146ZM63.4491 17V0.199999H70.9371C72.8891 0.199999 74.4171 0.687999 75.5211 1.664C76.6251 2.624 77.1771 3.92 77.1771 5.552C77.1771 6.88 76.8171 7.976 76.0971 8.84C75.3771 9.688 74.4011 10.288 73.1691 10.64L77.7051 17H74.2251L70.0491 11.144H66.4011V17H63.4491ZM66.4011 8.528H70.7211C71.7771 8.528 72.6171 8.272 73.2411 7.76C73.8651 7.248 74.1771 6.552 74.1771 5.672C74.1771 4.776 73.8731 4.088 73.2651 3.608C72.6571 3.128 71.8011 2.888 70.6971 2.888H66.4011V8.528ZM85.1274 17V10.376L78.4554 0.199999H81.9354L86.6394 7.64L91.3914 0.199999H94.7754L88.1034 10.304V17H85.1274ZM0.66 40V23.2H3.804L8.916 31.144L14.028 23.2H17.172V40H14.22V27.952L8.916 35.872H8.82L3.564 28V40H0.66ZM20.0559 40L27.4479 23.08H30.1839L37.5759 40H34.4559L32.7519 35.944H24.8079L23.0799 40H20.0559ZM25.8879 33.328H31.6719L28.7679 26.608L25.8879 33.328ZM40.4569 40V23.2H43.4089V37.312H52.2409V40H40.4569ZM55.4843 40V23.2H58.4363V40H55.4843ZM62.9334 40V23.2H65.8854V31.648L73.8774 23.2H77.5014L70.5174 30.424L77.8134 40H74.2374L68.5014 32.44L65.8854 35.128V40H62.9334Z" fill="white"/>
</svg>
